<?xml version="1.0" standalone="no"?>
<!DOCTYPE svg PUBLIC "-//W3C//DTD SVG 20010904//EN"
 "http://www.w3.org/TR/2001/REC-SVG-20010904/DTD/svg10.dtd">
<svg version="1.0" xmlns="http://www.w3.org/2000/svg"
 width="400.000000pt" height="400.000000pt" viewBox="0 0 400.000000 400.000000"
 preserveAspectRatio="xMidYMid meet">
<metadata>
Created by potrace 1.14, written by Peter Selinger 2001-2017
</metadata>
<g transform="translate(0.000000,400.000000) scale(0.100000,-0.100000)"
fill="#000000" stroke="none">
<path d="M0 2000 l0 -2000 2000 0 2000 0 0 2000 0 2000 -2000 0 -2000 0 0
-2000z m2510 1926 c194 -35 390 -111 531 -206 142 -96 259 -248 295 -384 41
-154 -12 -320 -143 -449 -231 -228 -639 -329 -1075 -266 l-86 13 -189 -82
c-217 -94 -200 -98 -203 48 -1 47 -5 108 -8 136 -7 51 -8 53 -82 102 -125 84
-224 201 -272 320 -18 47 -22 76 -23 167 0 107 1 112 37 185 107 220 385 383
733 429 98 14 383 6 485 -13z m-520 -1381 c-7 -9 -15 -13 -19 -10 -3 3 1 10 9
15 21 14 24 12 10 -5z m16 -255 c14 -47 46 -122 70 -167 38 -70 46 -96 55
-169 5 -48 14 -105 19 -128 24 -110 16 -254 -20 -347 -11 -26 -16 -50 -11 -53
4 -3 13 13 20 34 14 47 41 55 41 13 0 -16 -9 -43 -20 -61 -19 -31 -20 -36 -5
-91 18 -70 19 -107 4 -167 -13 -50 -24 -53 -65 -22 -16 12 -30 22 -31 22 0 1
5 33 13 73 18 98 0 216 -48 302 -32 58 -32 61 -14 74 15 11 17 21 12 50 -7 36
-19 47 -31 27 -13 -21 -25 -9 -36 35 -6 25 -14 45 -18 44 -3 0 -19 -27 -35
-61 -18 -38 -54 -86 -95 -128 -57 -58 -74 -69 -129 -84 -35 -10 -66 -15 -69
-12 -8 8 -6 45 6 111 13 66 27 303 18 295 -3 -3 -11 -64 -17 -135 -6 -72 -13
-150 -16 -173 l-7 -44 -43 43 -43 42 46 64 c25 35 43 66 41 68 -3 3 -22 -20
-44 -50 -21 -30 -44 -56 -50 -59 -6 -2 -34 14 -62 35 -28 21 -56 39 -62 39
-22 0 -112 -52 -104 -60 5 -4 38 -20 74 -36 73 -31 93 -44 67 -44 -33 0 -77
-30 -102 -70 -38 -61 -51 -53 -59 36 -4 42 -4 96 0 120 6 44 5 46 -39 88 l-46
43 14 53 14 53 -35 34 c-37 35 -53 40 -71 22 -8 -8 -13 -5 -18 10 -3 12 -12
21 -20 21 -14 0 -65 -55 -65 -71 0 -5 -9 -18 -21 -30 -12 -12 -23 -36 -24 -54
-3 -34 -18 -69 -41 -95 -16 -19 -3 -211 20 -305 8 -33 12 -63 9 -68 -5 -9 -94
1 -106 13 -4 4 -4 18 1 31 5 13 12 36 16 51 6 25 3 27 -37 33 -43 7 -167 69
-167 84 0 5 21 25 48 45 41 32 56 56 114 178 38 78 61 138 53 135 -29 -12
-115 118 -115 173 0 19 9 22 97 35 23 4 53 15 65 24 62 49 184 104 275 126
219 52 304 54 518 13 115 -22 180 -45 222 -78 41 -32 47 -23 9 15 -68 67 -69
157 -4 231 l32 36 13 -63 c7 -35 24 -102 39 -149z m-533 63 c-7 -2 -19 -2 -25
0 -7 3 -2 5 12 5 14 0 19 -2 13 -5z m-110 -10 c-7 -2 -21 -2 -30 0 -10 3 -4 5
12 5 17 0 24 -2 18 -5z m-112 -18 c-30 -8 -60 -11 -65 -7 -13 8 36 20 84 20
30 0 27 -2 -19 -13z m-81 -15 c0 -5 -9 -10 -21 -10 -11 0 -17 5 -14 10 3 6 13
10 21 10 8 0 14 -4 14 -10z m-155 -20 c3 -6 -1 -7 -9 -4 -18 7 -21 14 -7 14 6
0 13 -4 16 -10z m90 0 c-28 -12 -37 -12 -30 0 3 6 16 10 28 9 21 0 21 -1 2 -9z
m-50 -361 c-20 -38 1 -40 35 -4 27 29 42 24 34 -13 -5 -25 -4 -25 9 -9 19 23
31 22 24 -3 -6 -22 8 -28 16 -7 3 6 6 2 6 -9 1 -12 -6 -38 -14 -58 -14 -33
-18 -35 -37 -25 -21 12 -116 8 -150 -6 -15 -6 -18 -2 -18 24 0 17 7 39 16 49
8 9 29 36 45 60 33 48 58 49 34 1z m-265 -116 c-11 -17 -11 -17 -6 0 3 10 6
24 7 30 0 9 2 9 5 0 3 -7 0 -20 -6 -30z m353 -39 c18 -9 47 -30 65 -47 l32
-31 0 -115 c1 -137 58 -508 82 -525 20 -15 48 -90 48 -128 0 -47 -30 -118 -49
-118 -9 0 -47 24 -86 53 -79 59 -198 215 -216 282 -6 22 -24 79 -39 126 -37
112 -58 229 -65 355 -5 95 -4 102 17 122 13 11 34 25 48 31 39 15 128 13 163
-5z m1049 -107 c-9 -19 -11 -13 -10 33 0 53 1 54 10 22 8 -23 8 -39 0 -55z
m-242 -1 c0 -21 -15 -44 -59 -90 -110 -113 -135 -151 -77 -112 14 9 27 16 29
16 2 0 1 -26 -1 -59 -4 -50 -1 -62 17 -80 25 -25 63 -27 81 -6 19 22 28 89 20
135 -9 49 2 51 30 4 12 -19 25 -33 27 -30 11 11 -8 55 -37 83 -27 27 -29 31
-15 43 8 7 17 11 19 9 1 -2 17 -29 34 -59 60 -107 66 -279 12 -363 -27 -44
-80 -76 -175 -108 -64 -22 -340 -19 -437 5 -51 12 -75 23 -70 30 3 6 7 35 7
65 1 30 6 56 12 58 6 2 0 23 -13 50 -40 77 -71 186 -56 191 7 2 36 19 64 38
35 24 48 29 43 17 -14 -34 -17 -123 -6 -152 24 -55 87 -66 132 -22 26 26 29
36 29 90 0 34 4 61 10 61 6 0 10 -5 10 -11 0 -12 29 -38 42 -39 4 0 5 7 2 15
-4 10 0 15 15 15 11 0 46 10 78 22 70 26 156 109 193 187 25 54 40 53 40 -3z
m-1167 -217 c17 -4 16 -7 -7 -28 l-26 -24 0 39 c0 21 4 34 8 28 4 -7 15 -13
25 -15z m540 -163 c18 -41 24 -186 8 -186 -10 0 -14 19 -42 175 -24 141 -25
194 0 110 10 -33 25 -77 34 -99z m-543 51 c0 -10 4 -16 9 -12 5 3 12 1 16 -5
3 -6 -1 -13 -9 -16 -21 -8 -21 -24 0 -24 8 0 12 5 9 10 -9 14 19 12 33 -2 7
-7 12 -20 12 -30 0 -20 30 -25 30 -5 1 15 39 -53 40 -71 0 -7 9 -22 20 -34 11
-12 20 -36 20 -52 0 -25 2 -28 11 -16 8 12 9 9 5 -12 -5 -21 -3 -28 9 -28 14
0 20 -12 16 -34 -1 -5 3 -22 10 -38 9 -22 14 -26 20 -16 5 8 9 -8 10 -42 1
-43 3 -49 9 -30 12 38 11 4 -1 -46 -10 -39 -29 -61 -29 -33 0 5 -5 7 -10 4 -6
-4 -8 -15 -5 -26 4 -11 2 -19 -4 -19 -6 0 -10 -3 -10 -7 3 -21 -2 -33 -12 -28
-6 4 -8 14 -5 22 3 8 1 11 -4 8 -6 -3 -10 5 -10 18 0 14 -7 30 -15 37 -10 9
-15 9 -15 1 0 -6 5 -11 10 -11 6 0 10 -8 10 -17 -1 -11 -10 -3 -25 22 -26 42
-35 72 -12 41 12 -16 13 -14 9 18 -4 38 -18 48 -24 19 -5 -21 -38 48 -38 77 0
10 -4 20 -8 22 -5 2 -12 17 -16 33 -5 22 -4 26 4 15 7 -12 10 -8 10 16 0 16
-7 39 -15 50 -15 18 -16 17 -10 -16 l6 -35 -15 29 c-9 15 -13 32 -10 37 3 5 0
9 -5 9 -7 0 -10 25 -9 65 1 36 -2 68 -7 72 -4 5 -5 -7 -2 -24 4 -19 2 -33 -3
-33 -11 0 -15 36 -12 113 1 28 -3 45 -8 42 -6 -3 -10 4 -10 17 1 22 1 22 15 4
8 -11 15 -28 15 -39z m1201 -290 c-10 -9 -11 -8 -5 6 3 10 9 15 12 12 3 -3 0
-11 -7 -18z m-56 -15 c-16 -15 -60 -53 -98 -86 l-67 -58 -14 34 c-36 85 -38
82 66 102 52 9 101 21 109 27 30 19 33 8 4 -19z m-266 -28 c9 -8 -7 -12 -79
-19 -68 -6 -78 -5 -100 15 l-25 21 100 -7 c55 -3 102 -8 104 -10z m-194 -48
c20 7 20 7 0 -12 -25 -24 -28 -60 -4 -60 13 0 15 5 9 22 -6 15 -5 24 3 27 16
6 52 -19 52 -36 0 -7 5 -12 11 -12 6 0 26 -16 45 -36 19 -19 40 -34 46 -32 6
2 14 -1 18 -6 3 -6 0 -9 -8 -5 -10 4 -13 -3 -9 -25 4 -31 22 -33 22 -3 0 36
31 -29 36 -75 4 -43 2 -51 -25 -80 -22 -24 -35 -30 -53 -26 -20 6 -21 5 -10
-10 12 -14 12 -19 -1 -32 -10 -9 -18 -11 -22 -5 -11 18 -27 10 -20 -10 9 -29
-29 -40 -125 -37 l-80 2 0 37 c0 44 9 70 21 62 5 -3 9 -1 9 5 0 5 -5 11 -11
13 -10 3 -19 36 -35 118 -3 16 4 39 21 65 20 31 25 34 20 15 -5 -23 -5 -23 6
-6 6 11 12 51 12 90 0 76 13 98 37 65 11 -14 22 -18 35 -13z m180 -37 c-21
-78 -27 -79 -84 -18 -28 30 -51 57 -51 62 0 4 33 7 74 7 l74 0 -13 -51z m140
-385 c21 -14 25 -24 25 -69 0 -90 -60 -133 -144 -105 -111 36 -98 174 19 200
32 7 61 0 100 -26z m-451 -250 c8 -41 -6 -64 -38 -64 -11 0 -16 4 -11 8 6 4
10 13 11 20 3 38 5 43 14 37 6 -3 10 -16 11 -28 0 -12 3 -16 6 -9 3 7 0 26 -6
42 -5 17 -6 30 -2 30 5 0 12 -16 15 -36z m26 -15 c0 -46 25 -55 40 -14 8 20
16 25 45 25 19 0 35 3 35 8 0 9 72 32 103 32 31 0 40 -10 24 -28 -10 -13 -7
-14 26 -8 21 4 52 4 69 1 26 -6 29 -10 25 -38 -9 -60 -27 -87 -61 -88 -17 0
-52 -2 -78 -3 -38 -1 -45 1 -36 12 9 10 8 12 -3 10 -8 -2 -13 3 -11 11 2 9 -3
11 -13 7 -9 -3 -26 0 -37 8 -14 10 -16 15 -6 19 9 4 9 6 -3 6 -8 1 -24 -6 -35
-14 -18 -14 -18 -14 6 -15 27 0 58 -16 49 -24 -2 -3 -23 1 -44 9 -22 8 -49 15
-60 16 -17 1 -16 2 5 10 19 7 13 8 -25 5 -27 -2 -43 -2 -34 1 9 2 15 12 14 21
-13 63 -14 82 -5 77 6 -3 10 -24 10 -46z m550 -127 l-22 -60 -49 -7 c-37 -5
-56 -3 -73 8 -26 18 -41 56 -23 62 49 13 155 49 167 55 23 13 23 6 0 -58z
m-442 10 c68 -22 82 -30 82 -47 0 -35 -16 -48 -68 -53 -94 -9 -123 12 -137 97
-8 49 -22 49 123 3z"/>
<path d="M2565 3636 c-130 -49 -113 -228 25 -251 92 -16 175 22 199 92 19 54
4 110 -40 142 -40 30 -128 37 -184 17z m129 -68 c25 -35 20 -83 -10 -107 -15
-12 -38 -21 -51 -21 -32 0 -73 42 -73 75 0 63 100 102 134 53z"/>
<path d="M2820 3620 c0 -28 2 -30 41 -30 l42 0 -5 -100 -5 -100 44 0 43 0 0
84 c0 109 3 116 51 116 37 0 39 2 39 30 l0 30 -125 0 -125 0 0 -30z"/>
<path d="M1697 3632 c-3 -4 -8 -50 -11 -102 -4 -52 -9 -107 -12 -122 -5 -26
-3 -28 29 -28 l35 0 7 68 c3 37 7 74 9 82 1 8 11 -21 22 -65 l19 -80 40 0 39
0 26 80 25 80 3 -82 3 -83 34 0 35 0 0 130 0 130 -49 0 c-28 0 -53 -5 -56 -10
-3 -6 -17 -40 -29 -76 -24 -68 -28 -70 -40 -19 -25 107 -21 102 -76 104 -27 0
-51 -3 -53 -7z"/>
<path d="M2160 3556 c0 -46 -3 -104 -6 -130 l-7 -47 39 3 39 3 5 78 5 77 49
-80 48 -80 48 0 47 0 6 98 c12 170 13 162 -34 162 -32 0 -40 -3 -38 -17 1 -10
1 -47 0 -83 l-2 -65 -47 82 -47 83 -52 0 -53 0 0 -84z"/>
<path d="M1457 3623 c-4 -3 -7 -62 -7 -130 l0 -123 39 0 c47 0 49 4 51 153 l1
107 -39 0 c-21 0 -42 -3 -45 -7z"/>
<path d="M1590 3594 c0 -31 3 -35 23 -32 17 2 23 11 25 36 3 29 1 32 -22 32
-23 0 -26 -4 -26 -36z"/>
<path d="M2620 3078 c-36 -68 -66 -126 -68 -130 -2 -5 16 -8 40 -8 41 0 46 3
61 35 16 33 19 35 67 35 49 0 52 -2 66 -35 13 -32 18 -35 54 -35 22 0 40 3 40
8 0 4 -21 62 -47 129 l-48 122 -50 1 -50 0 -65 -122z m124 30 c9 -35 8 -38
-20 -38 -17 0 -24 4 -20 13 3 6 9 20 12 30 9 24 20 21 28 -5z"/>
<path d="M2927 3193 c-4 -3 -7 -39 -7 -80 l0 -73 40 0 40 0 0 64 c0 35 3 71 6
80 5 13 -1 16 -33 16 -22 0 -43 -3 -46 -7z"/>
<path d="M1593 3183 c-91 -4 -93 -4 -93 -28 0 -24 3 -25 56 -25 31 0 54 -4 52
-9 -1 -5 -31 -39 -65 -75 -64 -67 -81 -111 -47 -118 9 -2 63 -2 120 0 103 3
104 4 104 28 0 23 -3 24 -60 24 -33 0 -60 3 -60 8 1 4 30 39 66 77 48 53 64
76 62 95 -3 28 0 28 -135 23z"/>
<path d="M1775 3178 c-2 -7 -5 -66 -7 -130 l-3 -118 106 0 c106 0 107 0 111
25 7 34 -1 37 -72 29 -60 -7 -60 -6 -60 19 0 25 3 26 58 29 54 3 57 4 60 31 3
27 2 27 -52 27 -49 0 -56 2 -56 20 0 18 7 20 65 20 l65 0 0 30 0 30 -105 0
c-76 0 -107 -4 -110 -12z"/>
<path d="M2040 3137 c0 -30 -3 -88 -6 -130 l-7 -77 107 0 106 0 0 30 0 30 -61
0 -62 0 5 100 5 100 -44 0 -43 0 0 -53z"/>
<path d="M2277 3108 c-4 -46 -7 -105 -7 -132 l0 -49 96 6 c61 4 106 12 120 22
63 41 76 154 25 206 -29 28 -32 29 -129 29 l-99 0 -6 -82z m163 12 c45 -45 6
-130 -60 -130 -29 0 -30 2 -30 44 0 24 3 58 6 75 6 26 11 31 35 31 16 0 38 -9
49 -20z"/>
<path d="M2925 2998 c-15 -46 -11 -53 33 -56 l42 -3 0 35 c0 34 -2 36 -35 36
-20 0 -38 -6 -40 -12z"/>
<path d="M1910 1270 c-12 -8 -11 -10 7 -10 12 0 25 5 28 10 8 13 -15 13 -35 0z"/>
<path d="M1990 1256 c0 -2 7 -9 15 -16 13 -11 14 -10 9 4 -5 14 -24 23 -24 12z"/>
<path d="M1446 1225 c4 -8 11 -15 16 -15 6 0 5 6 -2 15 -7 8 -14 15 -16 15 -2
0 -1 -7 2 -15z"/>
<path d="M1970 1236 c0 -2 8 -10 18 -17 15 -13 16 -12 3 4 -13 16 -21 21 -21
13z"/>
<path d="M1655 1139 c-16 -10 -34 -21 -40 -23 -5 -2 -8 -6 -5 -9 4 -4 28 5 54
18 46 23 50 24 62 7 7 -9 14 -23 14 -30 0 -7 4 -10 10 -7 6 4 4 17 -5 36 -18
34 -45 37 -90 8z"/>
<path d="M853 1080 c11 -39 27 -55 27 -25 0 19 -21 65 -30 65 -4 0 -2 -18 3
-40z"/>
<path d="M860 1007 c0 -7 9 -20 20 -30 19 -16 20 -16 20 1 0 9 -9 23 -20 30
-16 10 -20 10 -20 -1z"/>
<path d="M871 944 c0 -11 3 -14 6 -6 3 7 2 16 -1 19 -3 4 -6 -2 -5 -13z"/>
<path d="M885 920 c-3 -5 -1 -10 4 -10 6 0 11 5 11 10 0 6 -2 10 -4 10 -3 0
-8 -4 -11 -10z"/>
<path d="M931 874 c-1 -5 5 -18 12 -27 11 -16 12 -15 14 9 0 17 -2 22 -7 14
-6 -10 -9 -9 -13 1 -3 8 -6 9 -6 3z"/>
<path d="M970 815 c0 -8 7 -15 15 -15 8 0 15 7 15 15 0 8 -7 15 -15 15 -8 0
-15 -7 -15 -15z"/>
<path d="M1415 905 c-4 -11 -10 -24 -13 -29 -3 -5 0 -6 7 -2 14 9 5 -41 -12
-61 -6 -9 -6 -13 1 -13 14 0 35 74 29 103 -3 21 -4 21 -12 2z"/>
<path d="M1602 775 c0 -16 2 -22 5 -12 2 9 2 23 0 30 -3 6 -5 -1 -5 -18z"/>
<path d="M1346 758 c-8 -31 -8 -43 1 -34 8 8 16 56 10 56 -3 0 -7 -10 -11 -22z"/>
<path d="M1468 553 c6 -2 18 -2 25 0 6 3 1 5 -13 5 -14 0 -19 -2 -12 -5z"/>
<path d="M1470 539 l-55 -7 58 2 c31 0 57 -2 57 -6 0 -5 4 -8 10 -8 5 0 7 7 4
15 -4 8 -9 14 -13 13 -3 -1 -31 -5 -61 -9z"/>
<path d="M1458 513 c12 -2 32 -2 45 0 12 2 2 4 -23 4 -25 0 -35 -2 -22 -4z"/>
<path d="M1651 493 c-1 -32 14 -54 49 -73 23 -12 65 2 74 25 9 24 -12 55 -37
54 l-22 0 23 -10 c35 -13 26 -53 -12 -57 -34 -4 -63 23 -69 64 l-4 29 -2 -32z"/>
<path d="M1458 273 c-51 -6 -49 -23 2 -23 22 0 40 4 40 9 0 5 10 12 23 14 20
4 20 4 -3 4 -14 0 -42 -2 -62 -4z"/>
<path d="M1428 233 c7 -3 16 -2 19 1 4 3 -2 6 -13 5 -11 0 -14 -3 -6 -6z"/>
</g>
</svg>
